<svg id="Capa_1" enable-background="new 0 0 508.161 508.161" height="512" viewBox="0 0 508.161 508.161" width="512" xmlns="http://www.w3.org/2000/svg"><g><path d="m442.081 28.832c-14.233-18.323-35.703-28.832-58.905-28.832h-97.574l-91.055 58.799-.184.12c-18.116 12.078-28.931 32.287-28.931 54.059 0 14.97 5.088 28.771 13.626 39.77-13.729 3.354-27.033 8.434-39.513 15.137l-4.815 2.586c-50.739 27.255-83.052 79.336-84.328 135.913-.028 1.225-.042 2.45-.042 3.678 0 46.621 20.05 91.051 55.01 121.898l1.382 1.219c18.633 16.441 40.597 28.249 64.159 34.773v40.21h30v-34.877c4.441.367 8.909.562 13.396.562h31.879v-30h-31.879c-32.322 0-63.47-11.777-87.708-33.164l-1.382-1.219c-28.507-25.154-44.857-61.385-44.857-99.402 0-.999.011-1.996.034-2.997.217-9.604 1.557-19.047 3.898-28.185l251.871 59.533c4.237 1.002 8.519 1.496 12.774 1.496 9.883 0 19.621-2.67 28.294-7.868 8.391-5.03 15.157-12.059 19.808-20.404l10.529 20.893c25.183 49.968 23.499 108.723-4.502 157.167l25.973 15.013c33.082-57.233 35.07-126.647 5.32-185.682l-24.301-48.22 11.728-45.935 19.727-74.523-.655-.173 14.588-57.135c5.74-22.483.869-45.886-13.365-64.21zm-321.873 188.921 33.864 6.946-19.252 35.296-39.571-9.353c6.461-12.137 14.884-23.254 24.959-32.889zm253.001 73.393c-3.52 13.296-16.763 21.235-30.146 18.069l-177.973-42.065 19.716-36.146 154.8 31.753 38.592-162.089-29.184-6.949-31.859 133.808-162.989-33.433c19.826-10.56 42.159-16.145 64.623-16.145h27.398v-30h-15.784c-19.283 0-34.971-15.688-34.971-34.971 0-11.686 5.789-22.534 15.49-29.042l83.524-53.936h88.73c13.87 0 26.705 6.282 35.213 17.235 8.509 10.954 11.421 24.944 7.989 38.383l-33.608 131.63z"/></g></svg>